<svg width="1200" height="630" viewBox="0 0 1200 630" fill="none" xmlns="http://www.w3.org/2000/svg">
  <defs>
    <linearGradient id="bg" x1="0" y1="0" x2="1200" y2="630" gradientUnits="userSpaceOnUse">
      <stop offset="0" stop-color="#FFF6CF"/>
      <stop offset="1" stop-color="#D6F7FF"/>
    </linearGradient>
    <pattern id="grid" width="28" height="28" patternUnits="userSpaceOnUse">
      <path d="M28 0H0V28" fill="none" stroke="#111111" stroke-opacity="0.08" stroke-width="1"/>
    </pattern>
  </defs>

  <rect width="1200" height="630" fill="url(#bg)"/>
  <rect width="1200" height="630" fill="url(#grid)"/>

  <rect x="36" y="32" width="1128" height="566" rx="10" fill="#F7D93E" stroke="#111111" stroke-width="6"/>
  <rect x="54" y="52" width="1092" height="526" rx="8" fill="#F8F8F8" stroke="#111111" stroke-width="6"/>

  <rect x="94" y="98" width="132" height="76" rx="10" fill="#5FC6DA" stroke="#111111" stroke-width="6"/>
  <text x="160" y="146" text-anchor="middle" fill="#111111" font-family="'Space Grotesk', Arial, sans-serif" font-size="40" font-weight="700">VG</text>

  <rect x="872" y="98" width="238" height="76" rx="10" fill="#5FC6DA" stroke="#111111" stroke-width="6"/>
  <text x="991" y="146" text-anchor="middle" fill="#111111" font-family="'Space Grotesk', Arial, sans-serif" font-size="36" font-weight="700">Portfolio</text>

  <text x="96" y="270" fill="#5FC6DA" font-family="'Space Grotesk', Arial, sans-serif" font-size="52" font-weight="700">Hi there!</text>
  <text x="96" y="356" fill="#111111" font-family="'Space Grotesk', Arial, sans-serif" font-size="78" font-weight="700">Vaibhav Gupta</text>
  <text x="96" y="426" fill="#111111" font-family="'Space Mono', 'Courier New', monospace" font-size="36" font-weight="700">Statistical Data Analysis and AIML</text>
  <text x="96" y="490" fill="#111111" font-family="'Space Grotesk', Arial, sans-serif" font-size="30" font-weight="500">Data Science | ML Systems | Data Storytelling</text>

  <rect x="740" y="248" width="360" height="268" rx="8" fill="#8ED9F0" stroke="#111111" stroke-width="6"/>
  <rect x="716" y="224" width="360" height="268" rx="8" fill="#FFFFFF" stroke="#111111" stroke-width="6"/>
  <rect x="744" y="242" width="304" height="186" rx="8" fill="#8ED9F0" stroke="#111111" stroke-width="4"/>

  <polyline points="772,392 824,352 872,372 924,318 1004,336" fill="none" stroke="#111111" stroke-width="8" stroke-linecap="round" stroke-linejoin="round"/>
  <circle cx="772" cy="392" r="10" fill="#FFFFFF" stroke="#111111" stroke-width="5"/>
  <circle cx="824" cy="352" r="10" fill="#F7D93E" stroke="#111111" stroke-width="5"/>
  <circle cx="872" cy="372" r="10" fill="#F7D93E" stroke="#111111" stroke-width="5"/>
  <circle cx="924" cy="318" r="10" fill="#F7D93E" stroke="#111111" stroke-width="5"/>
  <circle cx="1004" cy="336" r="10" fill="#FFFFFF" stroke="#111111" stroke-width="5"/>

  <rect x="772" y="354" width="26" height="48" rx="4" fill="#FFFFFF" stroke="#111111" stroke-width="4"/>
  <rect x="812" y="334" width="26" height="68" rx="4" fill="#F7D93E" stroke="#111111" stroke-width="4"/>
  <rect x="852" y="316" width="26" height="86" rx="4" fill="#FFFFFF" stroke="#111111" stroke-width="4"/>
  <rect x="892" y="292" width="26" height="110" rx="4" fill="#F7D93E" stroke="#111111" stroke-width="4"/>

  <rect x="674" y="180" width="94" height="94" rx="12" fill="#5FC6DA" stroke="#111111" stroke-width="6" transform="rotate(-6 674 180)"/>
  <text x="720" y="238" text-anchor="middle" fill="#111111" font-family="'Space Mono', 'Courier New', monospace" font-size="50" font-weight="700">&lt;/&gt;</text>

  <rect x="1014" y="336" width="104" height="82" rx="12" fill="#F7D93E" stroke="#111111" stroke-width="6"/>
  <text x="1066" y="390" text-anchor="middle" fill="#111111" font-family="'Space Mono', 'Courier New', monospace" font-size="52" font-weight="700">&gt;_</text>

  <rect x="842" y="484" width="280" height="72" rx="8" fill="#9DDEC8" stroke="#111111" stroke-width="6"/>
  <text x="982" y="531" text-anchor="middle" fill="#111111" font-family="'Space Grotesk', Arial, sans-serif" font-size="36" font-weight="700">Open to Collaborate</text>
</svg>
